<?xml version="1.0" encoding="utf-8"?>
<!-- Generator: Adobe Illustrator 24.2.1, SVG Export Plug-In . SVG Version: 6.00 Build 0)  -->
<svg version="1.1" id="Layer_1" xmlns="http://www.w3.org/2000/svg" xmlns:xlink="http://www.w3.org/1999/xlink" x="0px" y="0px"
	 viewBox="0 0 851.5 851.5" style="enable-background:new 0 0 851.5 851.5;" xml:space="preserve">
<style type="text/css">
	.st0{fill:#47B279;}
</style>
<g>
	<path d="M106.3,408.3v-0.2c0.7-0.1,0.8-0.1,0.8-0.8v-3.4c0-0.7-0.1-0.8-0.8-0.8v-0.3h2.4v0.3c-0.7,0-0.8,0.1-0.8,0.8v3.4
		c0,0.7,0.1,0.8,0.8,0.8v0.2H106.3z"/>
	<path d="M114.1,408.3v-0.2c0.5-0.1,0.6-0.1,0.6-0.7V406c0-0.6-0.2-1-0.8-1c-0.3,0-0.6,0.2-0.9,0.4c0,0.1,0,0.2,0,0.4v1.6
		c0,0.5,0.1,0.6,0.6,0.6v0.2h-1.9v-0.2c0.5-0.1,0.6-0.1,0.6-0.7V406c0-0.6-0.2-1-0.7-1c-0.3,0-0.7,0.2-0.9,0.4v2
		c0,0.6,0.1,0.6,0.5,0.7v0.2h-1.9v-0.2c0.6-0.1,0.6-0.1,0.6-0.7v-1.7c0-0.5,0-0.6-0.5-0.7v-0.2c0.4-0.1,0.9-0.2,1.3-0.3v0.7
		c0.2-0.1,0.4-0.3,0.6-0.4c0.2-0.1,0.4-0.2,0.7-0.2c0.4,0,0.8,0.3,1,0.7c0.3-0.2,0.5-0.3,0.7-0.5c0.2-0.1,0.4-0.2,0.7-0.2
		c0.7,0,1.1,0.5,1.1,1.3v1.6c0,0.6,0.1,0.6,0.6,0.7v0.2H114.1z"/>
	<path d="M118.6,404.6c0.2-0.1,0.3-0.1,0.5-0.1c1,0,1.6,0.8,1.6,1.6c0,1.3-1,2.1-2.2,2.3c-0.3,0-0.5-0.1-0.6-0.1v1.1
		c0,0.6,0.1,0.7,0.7,0.7v0.2h-2.1v-0.2c0.6-0.1,0.6-0.1,0.6-0.7v-3.9c0-0.5,0-0.6-0.6-0.6v-0.2c0.4-0.1,0.9-0.2,1.3-0.4v0.7
		L118.6,404.6z M117.8,407.7c0.2,0.2,0.5,0.3,0.8,0.3c0.7,0,1.2-0.7,1.2-1.5c0-0.9-0.6-1.4-1.2-1.4c-0.3,0-0.6,0.2-0.8,0.4V407.7z"
		/>
	<path d="M123.9,408.4c-0.2,0-0.4-0.1-0.4-0.2c-0.1-0.1-0.2-0.2-0.2-0.4c-0.4,0.2-0.8,0.5-1,0.5c-0.7,0-1.1-0.5-1.1-1.1
		c0-0.4,0.2-0.7,0.7-0.8c0.6-0.2,1.2-0.4,1.3-0.6v-0.2c0-0.6-0.3-0.9-0.7-0.9c-0.2,0-0.3,0.1-0.4,0.2c-0.1,0.1-0.2,0.3-0.3,0.6
		c-0.1,0.2-0.1,0.2-0.3,0.2c-0.2,0-0.4-0.2-0.4-0.4c0-0.1,0.1-0.2,0.3-0.4c0.3-0.2,0.8-0.5,1.3-0.6c0.3,0,0.5,0.1,0.7,0.2
		c0.3,0.3,0.4,0.6,0.4,1.1v1.5c0,0.4,0.2,0.5,0.3,0.5c0.1,0,0.2,0,0.3-0.1l0.1,0.2L123.9,408.4z M123.3,406.3
		c-0.2,0.1-0.5,0.3-0.7,0.3c-0.3,0.1-0.5,0.3-0.5,0.6c0,0.5,0.3,0.7,0.6,0.7c0.2,0,0.5-0.1,0.6-0.3V406.3z"/>
	<path d="M128.4,407.5c-0.4,0.5-1,0.9-1.5,0.9c-1.1,0-1.8-0.9-1.8-1.8c0-0.7,0.3-1.2,0.9-1.7c0.5-0.4,1-0.5,1.3-0.5h0
		c0.4,0,0.6,0.1,0.8,0.2c0.1,0.1,0.1,0.2,0.1,0.3c0,0.2-0.2,0.4-0.3,0.4c-0.1,0-0.1,0-0.2-0.1c-0.3-0.3-0.6-0.4-0.9-0.4
		c-0.5,0-1,0.4-1,1.3c0,1.2,0.9,1.6,1.3,1.6c0.4,0,0.7-0.1,1-0.5L128.4,407.5z"/>
	<path d="M130.5,408.3c-0.2,0.1-0.3,0.1-0.4,0.1c-0.6,0-0.9-0.3-0.9-1V405h-0.6l0-0.1l0.2-0.3h0.4V404l0.6-0.6l0.1,0v1.2h1
		c0.1,0.1,0.1,0.3-0.1,0.4H130v2.2c0,0.7,0.3,0.8,0.5,0.8c0.2,0,0.4-0.1,0.5-0.1l0.1,0.2L130.5,408.3z"/>
</g>
<g>
	<path class="st0" d="M131.2,676.7h24.2c7.6,0,13.4,1,17.4,2.9c3.9,1.9,7.1,5.8,9.5,11.7c2.4,5.9,3.6,15.4,3.6,28.5
		c0,8.9-0.9,15-2.6,18.5c-1.7,3.5-5.1,6.2-10.1,8c5.6,2.1,9.4,5.5,11.4,10.3c2,4.8,3,12.1,3,22v14c0,10.2-0.7,17.8-2.2,22.8
		c-1.4,4.9-3.7,8.3-6.9,10.1c-3.1,1.8-9.6,2.7-19.3,2.7h-28V676.7z M155.5,702.6v33.7c1-0.1,1.8-0.1,2.4-0.1c2.4,0,3.9-1,4.5-2.9
		c0.7-1.9,1-7.3,1-16.3c0-4.7-0.3-8.1-0.8-10c-0.5-1.9-1.2-3.1-2.1-3.6C159.7,702.9,158,702.7,155.5,702.6z M155.5,759.9v42.4
		c3.4-0.2,5.6-1.1,6.5-2.6c0.9-1.6,1.4-5.4,1.4-11.5V774c0-6.5-0.4-10.4-1.3-11.8C161.3,760.8,159.1,760,155.5,759.9z"/>
	<path class="st0" d="M196.4,676.7h17.2c11.4,0,19.2,0.7,23.2,2.2c4,1.4,7.4,5.1,9.9,11c2.6,5.9,3.8,15.3,3.8,28.2
		c0,11.8-0.9,19.7-2.7,23.8c-1.8,4.1-5.4,6.5-10.7,7.3c4.8,1.9,8,4.5,9.7,7.8c1.7,3.2,2.7,6.2,3.1,8.9c0.4,2.7,0.6,10.2,0.6,22.4v40
		H228v-50.3c0-8.1-0.4-13.1-1.2-15.1c-0.8-1.9-2.9-2.9-6.2-2.9v68.3h-24.2V676.7z M220.6,702.6v33.7c2.7,0,4.6-0.6,5.7-1.8
		c1.1-1.2,1.6-5.2,1.6-11.8v-8.3c0-4.8-0.5-8-1.6-9.5C225.3,703.3,223.4,702.6,220.6,702.6z"/>
	<path class="st0" d="M301.8,676.7l13.9,151.5h-24.8l-1.3-27.2h-8.7l-1.5,27.2h-25.1l12.4-151.5H301.8z M288.9,774.1
		c-1.2-17.2-2.5-38.4-3.7-63.6c-2.5,29-4,50.2-4.7,63.6H288.9z"/>
	<path class="st0" d="M344,676.7v151.5h-24.2V676.7H344z"/>
	<path class="st0" d="M407.9,676.7v151.5h-21.2L374,759.3v68.9h-20.3V676.7H374l13.6,68.2v-68.2H407.9z"/>
	<path class="st0" d="M438.4,676.7h24.2c7.6,0,13.4,1,17.4,2.9s7.1,5.8,9.5,11.7c2.4,5.9,3.6,15.4,3.6,28.5c0,8.9-0.9,15-2.6,18.5
		c-1.7,3.5-5.1,6.2-10.1,8c5.6,2.1,9.4,5.5,11.4,10.3c2,4.8,3,12.1,3,22v14c0,10.2-0.7,17.8-2.2,22.8c-1.4,4.9-3.7,8.3-6.9,10.1
		c-3.1,1.8-9.6,2.7-19.3,2.7h-28V676.7z M462.6,702.6v33.7c1-0.1,1.8-0.1,2.4-0.1c2.4,0,3.9-1,4.5-2.9c0.7-1.9,1-7.3,1-16.3
		c0-4.7-0.3-8.1-0.8-10c-0.5-1.9-1.2-3.1-2.1-3.6C466.8,702.9,465.1,702.7,462.6,702.6z M462.6,759.9v42.4c3.4-0.2,5.6-1.1,6.5-2.6
		c0.9-1.6,1.4-5.4,1.4-11.5V774c0-6.5-0.4-10.4-1.3-11.8C468.5,760.8,466.2,760,462.6,759.9z"/>
	<path class="st0" d="M558.9,765.4c0,15.2-0.2,26-0.7,32.3c-0.4,6.3-1.8,12.1-4.1,17.4c-2.3,5.2-5.5,9.3-9.4,12.1
		c-4,2.8-8.6,4.2-13.8,4.2c-5,0-9.5-1.3-13.4-4c-4-2.7-7.2-6.6-9.6-11.9c-2.4-5.3-3.9-11.1-4.3-17.3c-0.5-6.2-0.7-17.2-0.7-32.7
		v-25.9c0-15.2,0.2-26,0.7-32.3s1.8-12.1,4.1-17.4c2.3-5.2,5.5-9.3,9.4-12.1c4-2.8,8.6-4.2,13.8-4.2c5,0,9.5,1.3,13.4,4
		c4,2.7,7.2,6.6,9.6,11.9c2.4,5.3,3.9,11.1,4.3,17.3c0.5,6.2,0.7,17.2,0.7,32.7V765.4z M534.7,715.6c0-7-0.2-11.6-0.7-13.5
		c-0.5-2-1.5-2.9-3-2.9c-1.3,0-2.2,0.8-2.9,2.4c-0.7,1.6-1,6.3-1,14.1v70.7c0,8.8,0.2,14.2,0.7,16.3s1.5,3.1,3.1,3.1
		c1.6,0,2.7-1.2,3.2-3.6c0.5-2.4,0.7-8,0.7-16.9V715.6z"/>
	<path class="st0" d="M623.3,765.4c0,15.2-0.2,26-0.7,32.3c-0.4,6.3-1.8,12.1-4.1,17.4c-2.3,5.2-5.5,9.3-9.4,12.1
		c-4,2.8-8.6,4.2-13.8,4.2c-5,0-9.5-1.3-13.4-4c-4-2.7-7.2-6.6-9.6-11.9c-2.4-5.3-3.9-11.1-4.3-17.3c-0.5-6.2-0.7-17.2-0.7-32.7
		v-25.9c0-15.2,0.2-26,0.7-32.3s1.8-12.1,4.1-17.4c2.3-5.2,5.5-9.3,9.4-12.1c4-2.8,8.6-4.2,13.8-4.2c5,0,9.5,1.3,13.4,4
		c4,2.7,7.2,6.6,9.6,11.9c2.4,5.3,3.9,11.1,4.3,17.3c0.5,6.2,0.7,17.2,0.7,32.7V765.4z M599.1,715.6c0-7-0.2-11.6-0.7-13.5
		c-0.5-2-1.5-2.9-3-2.9c-1.3,0-2.2,0.8-2.9,2.4c-0.7,1.6-1,6.3-1,14.1v70.7c0,8.8,0.2,14.2,0.7,16.3s1.5,3.1,3.1,3.1
		c1.6,0,2.7-1.2,3.2-3.6c0.5-2.4,0.7-8,0.7-16.9V715.6z"/>
	<path class="st0" d="M683.7,722.5h-22.5v-11.2c0-5.2-0.3-8.6-0.9-10c-0.6-1.4-1.5-2.2-2.9-2.2c-1.5,0-2.6,1-3.3,2.9
		c-0.7,1.9-1.1,4.9-1.1,8.8c0,5.1,0.4,8.9,1.3,11.4c0.8,2.6,3.1,5.6,6.8,9.3c10.8,10.4,17.6,18.9,20.4,25.6
		c2.8,6.7,4.2,17.4,4.2,32.3c0,10.8-0.8,18.7-2.3,23.9c-1.6,5.1-4.6,9.4-9,12.9s-9.6,5.2-15.5,5.2c-6.5,0-12-2-16.6-6
		c-4.6-4-7.6-9.1-9-15.3c-1.4-6.2-2.1-14.9-2.1-26.3v-9.9h22.5v18.4c0,5.7,0.3,9.3,0.9,10.9c0.6,1.6,1.8,2.4,3.4,2.4s2.8-1,3.6-3.1
		c0.8-2.1,1.2-5.1,1.2-9.2c0-8.9-0.7-14.8-2.2-17.5c-1.5-2.7-5.3-7.3-11.3-13.8c-6-6.5-10-11.2-12-14.1c-2-2.9-3.6-7-4.9-12.2
		c-1.3-5.2-1.9-11.8-1.9-19.8c0-11.6,0.9-20.1,2.7-25.5c1.8-5.4,4.8-9.6,8.8-12.6c4.1-3,9-4.5,14.7-4.5c6.3,0,11.7,1.7,16.1,5
		c4.4,3.3,7.4,7.5,8.8,12.5c1.4,5,2.2,13.6,2.2,25.6V722.5z"/>
	<path class="st0" d="M742.2,676.7V707h-14.4v121.2h-24.2V707h-14.3v-30.3H742.2z"/>
</g>
</svg>
